<svg xmlns="http://www.w3.org/2000/svg" viewBox="0 0 14 14" fill="currentColor">
  <path d="M7.56 6.63H6.32V5.52h1.24v1.11zm0-3.83H6.32v1.14h1.24V2.8zm1.47 2.71H7.79v1.11h1.24V5.51zm-2.93-1.35H4.86v1.13h1.24V4.16zm1.46 0H6.32v1.13h1.24V4.16zM12.75 6.04c-.27-.18-.89-.25-1.37-.16-.06-.45-.31-.84-.77-1.2l-.26-.17-.18.26c-.34.52-.44 1.38-.07 1.95-.16.09-.48.21-.9.2l-8.15.01c-.16.95.11 2.19.82 3.04.7.82 1.74 1.24 3.1 1.24 2.95 0 5.14-1.36 6.16-3.83.4.01 1.27.01 1.71-.85.03-.05.12-.25.16-.32l-.25-.17zm-9.58-.53H1.93v1.11h1.24V5.51zm1.46 0H3.39v1.11h1.24V5.51zm1.47 0H4.86v1.11h1.24V5.51zm-1.47-1.35H3.39v1.13h1.24V4.16z"/>
</svg>
